# xmcd CD database file
#
# Track frame offsets:
#	183
#	23290
#	43925
#	73820
#	96333
#	123383
#	142833
#	163158
#	185583
#
# Disc length: 2848 seconds
#
# Revision: 0
# Processed by: cddbd v1.5.1PL0 Copyright (c) Steve Scherf et al.
# Submitted via: CDex 1.51
#
DISCID=7a0b1e09
DTITLE=Doc Powell - Love it's where it at
DYEAR=1988
DGENRE=Jazz
TTITLE0=give it Up
TTITLE1=Love it's where it at
TTITLE2=What's going on
TTITLE3=Bad Times
TTITLE4=What I like
TTITLE5=Love finds a way
TTITLE6=Don't waste my time
TTITLE7=Let you know
TTITLE8=M&M
EXTD=YEAR: 1988
EXTT0=
EXTT1=
EXTT2=
EXTT3=
EXTT4=
EXTT5=
EXTT6=
EXTT7=
EXTT8=
PLAYORDER=
